<?xml version="1.0" encoding="UTF-8"?>
<svg id="Layer_2" data-name="Layer 2" xmlns="http://www.w3.org/2000/svg" viewBox="0 0 427.45 109.7">
  <defs>
    <style>
      .cls-1 {
        fill: #37b7c3;
      }

      .cls-2 {
        fill: #0e110e;
      }
    </style>
  </defs>
  <g id="Layer_1-2" data-name="Layer 1">
    <g>
      <path class="cls-2" d="M84.58,77.43c0,10.18-3.55,18.1-10.65,23.77-7.1,5.67-17.07,8.51-29.89,8.51-6.78,0-12.91-.85-18.36-2.54-5.46-1.69-10.1-4.11-13.91-7.23-3.82-3.12-6.73-6.94-8.74-11.45-2.01-4.5-3.02-9.51-3.02-15.02h19.08c0,2.65.61,5.14,1.83,7.47,1.22,2.33,2.94,4.32,5.17,5.96,2.23,1.64,4.87,2.94,7.95,3.9,3.07.95,6.41,1.43,10.02,1.43,6.36,0,11.53-1.27,15.5-3.82,3.97-2.54,5.96-5.83,5.96-9.86s-1.86-7.1-5.56-9.54c-3.71-2.44-9.75-4.4-18.12-5.88-13.25-2.44-22.87-6.09-28.86-10.97-5.99-4.87-8.98-11.5-8.98-19.87,0-4.77.93-9.11,2.78-13.04,1.85-3.92,4.48-7.31,7.87-10.18,3.39-2.86,7.42-5.09,12.08-6.68,4.66-1.59,9.8-2.38,15.42-2.38s10.78.79,15.5,2.38c4.71,1.59,8.77,3.84,12.16,6.76,3.39,2.92,6.04,6.36,7.95,10.33,1.91,3.97,2.86,8.35,2.86,13.12h-19.08c0-4.45-1.8-8.08-5.41-10.89-3.6-2.81-8.32-4.21-14.15-4.21s-10.18,1.14-13.67,3.42c-3.5,2.28-5.25,5.27-5.25,8.98s1.91,6.73,5.72,9.06c3.82,2.33,10.12,4.4,18.92,6.2,6.57,1.27,12.19,2.84,16.85,4.69,4.66,1.86,8.48,4.08,11.45,6.68,2.97,2.6,5.14,5.62,6.52,9.06,1.38,3.45,2.07,7.39,2.07,11.84Z"/>
      <path class="cls-2" d="M136.25,93.01c5.41,0,9.78-1.64,13.12-4.93,3.34-3.28,5.01-7.63,5.01-13.04v-20.19h17.49v19.56c0,5.41-.85,10.28-2.54,14.63-1.7,4.35-4.08,8.06-7.15,11.13-3.08,3.07-6.81,5.43-11.21,7.07-4.4,1.64-9.3,2.46-14.71,2.46s-10.31-.82-14.71-2.46c-4.4-1.64-8.16-4-11.29-7.07-3.13-3.07-5.54-6.78-7.23-11.13-1.7-4.35-2.54-9.22-2.54-14.63V31.8h17.49v43.24c0,5.41,1.69,9.75,5.09,13.04,3.39,3.29,7.79,4.93,13.2,4.93Z"/>
      <path class="cls-2" d="M205.25,3.18v36.41c3.18-2.44,6.68-4.34,10.49-5.72,3.82-1.38,7.95-2.07,12.4-2.07,5.3,0,10.23,1.01,14.79,3.02,4.56,2.01,8.51,4.77,11.84,8.27,3.34,3.5,5.99,7.63,7.95,12.4,1.96,4.77,2.94,9.86,2.94,15.26s-1.01,10.63-3.02,15.34c-2.01,4.72-4.77,8.82-8.27,12.32-3.5,3.5-7.63,6.25-12.4,8.27-4.77,2.01-9.86,3.02-15.26,3.02h-38.95v-17.49h38.95c2.97,0,5.75-.56,8.35-1.67,2.6-1.11,4.87-2.62,6.84-4.53,1.96-1.91,3.5-4.19,4.61-6.84,1.11-2.65,1.67-5.46,1.67-8.43s-.56-5.91-1.67-8.51c-1.11-2.6-2.65-4.85-4.61-6.76-1.96-1.91-4.24-3.42-6.84-4.53-2.6-1.11-5.38-1.67-8.35-1.67s-5.91.56-8.51,1.67c-2.6,1.11-4.85,2.62-6.76,4.53-1.91,1.91-3.42,4.16-4.53,6.76-1.11,2.6-1.67,5.43-1.67,8.51v10.33h-17.49V3.18h17.49Z"/>
      <path class="cls-2" d="M314.16,93.01c5.41,0,9.78-1.64,13.12-4.93,3.34-3.28,5.01-7.63,5.01-13.04v-20.19h17.49v19.56c0,5.41-.85,10.28-2.54,14.63-1.7,4.35-4.08,8.06-7.15,11.13-3.08,3.07-6.81,5.43-11.21,7.07-4.4,1.64-9.3,2.46-14.71,2.46s-10.31-.82-14.71-2.46c-4.4-1.64-8.16-4-11.29-7.07-3.13-3.07-5.54-6.78-7.23-11.13-1.7-4.35-2.54-9.22-2.54-14.63V31.8h17.49v43.24c0,5.41,1.69,9.75,5.09,13.04,3.39,3.29,7.79,4.93,13.2,4.93Z"/>
      <g>
        <path class="cls-2" d="M407.38,92.23h-5.64c-5.99,0-10.59-1.6-13.79-4.8-3-3-4.59-7.11-4.78-12.34V31.8h-.02V3.18h-17.47v71.23c0,.17,0,.34,0,.5.02,2.71.27,5.29.73,7.73.02.13.05.26.07.4.37,1.99.88,3.89,1.51,5.71,1.54,4.41,3.83,8.17,6.86,11.29,3.04,3.12,6.82,5.51,11.36,7.17,2.55.94,5.34,1.61,8.38,2.02.07,0,.15.02.22.02.26.04.53.07.8.1,1.88.23,3.82.35,5.84.35.1,0,.21,0,.32,0,.12,0,.23,0,.35,0h25.34v-17.47h-20.07Z"/>
        <circle class="cls-1" cx="408.35" cy="62.72" r="11.3"/>
      </g>
    </g>
  </g>
</svg>