<svg xmlns="http://www.w3.org/2000/svg" width="132" height="28" viewBox="0 0 132 28" fill="none"><path d="M0 6C0 3.79086 1.79086 2 4 2H20.5C22.7091 2 24.5 3.79086 24.5 6V22.5C24.5 24.7091 22.7091 26.5 20.5 26.5H4C1.79086 26.5 0 24.7091 0 22.5V6Z" fill="url(#paint0_linear_5465_52261)"></path><circle cx="7.4556" cy="10.0285" r="1.5" fill="white"></circle><rect x="5.9556" y="13.4075" width="3" height="8" fill="white"></rect><rect x="10.3648" y="8.5285" width="3" height="13" fill="white"></rect><rect x="14.774" y="4.5285" width="3" height="17" fill="white"></rect><path d="M42.296 26.553C37.7272 26.553 34.4735 24.7834 32.5 22.9433L35.3821 19.9004C37.354 21.5276 39.5126 22.4836 42.2536 22.4836C45.8 22.4836 46.786 20.855 46.786 19.2983C46.786 13.3873 32.5667 16.9266 32.5667 8.11519C32.5667 3.97531 35.6748 1.00147 41.4496 1.00147C45.3935 1.00147 48.6503 2.41716 50.9529 4.32923L48.2847 7.54979C45.9927 5.73905 43.7583 5.07233 41.4921 5.07233C38.4219 5.07233 37.1417 6.27508 37.1417 7.76127C37.1417 12.7544 51.3609 9.4604 51.3609 18.9796C51.3609 23.262 48.5107 26.553 42.296 26.553ZM52.7959 1H57.2737V19.5803L66.3083 7.90812H71.6447L64.1392 17.5213L70.8923 26.553H65.5939L61.4892 21.0253L57.2737 26.553H52.7959V1ZM105.485 20.6288H110.372C109.141 24.2767 105.822 26.553 101.304 26.553C95.522 26.553 91.6403 22.7964 91.6403 17.1968C91.6403 11.6339 95.522 7.91253 101.304 7.91253C107.087 7.91253 110.932 11.6339 110.932 17.1968C110.932 17.702 110.894 18.1719 110.858 18.6419H96.2683C96.7522 21.1384 98.6179 22.5791 101.274 22.5791C103.134 22.5791 104.588 21.8933 105.485 20.6288ZM105.969 14.6679C105.186 12.8983 103.507 11.8865 101.266 11.8865C99.0639 11.8865 97.3862 12.8983 96.602 14.6679H105.969ZM79.2716 7.91253H84.0255V26.553H79.2655L79.2716 7.91253ZM85.459 1.00147H90.2114V26.5545H85.4529L85.459 1.00147ZM73.0842 13.6855H77.8321V26.553H73.0782L73.0842 13.6855ZM73.0448 10.249C73.0503 10.8674 73.3065 11.459 73.7582 11.8963C74.2099 12.3336 74.8209 12.5816 75.4597 12.587C76.0895 12.5717 76.6881 12.3187 77.128 11.8821C77.5678 11.4454 77.814 10.8597 77.814 10.2497C77.814 9.63983 77.5678 9.05406 77.128 8.61741C76.6881 8.18077 76.0895 7.92781 75.4597 7.91253C74.8201 7.91636 74.2078 8.16352 73.7548 8.60066C73.3019 9.0378 73.0447 9.62986 73.0387 10.249H73.0448ZM127.399 1.00881V10.227C126.636 9.48335 125.728 8.89377 124.728 8.49244C123.728 8.0911 122.656 7.88601 121.573 7.88903C116.438 7.88903 112.376 11.7851 112.376 17.2394C112.376 22.6569 116.438 26.553 121.573 26.553C122.665 26.5579 123.747 26.3502 124.754 25.9422C125.762 25.5343 126.674 24.9344 127.437 24.1783L127.783 26.553H132V1.00881H127.399ZM121.714 22.5482C118.594 22.5482 116.525 20.5466 116.525 17.1601C116.525 13.7736 118.594 11.7719 121.714 11.7719C124.874 11.7719 126.941 13.775 126.941 17.1601C126.941 20.5451 124.871 22.5482 121.714 22.5482Z" fill="url(#paint1_linear_5465_52261)"></path><defs><linearGradient id="paint0_linear_5465_52261" x1="2.88235" y1="25.7045" x2="22.5174" y2="3.94086" gradientUnits="userSpaceOnUse"><stop stop-color="#2970F6"></stop><stop offset="1" stop-color="#902EE0"></stop></linearGradient><linearGradient id="paint1_linear_5465_52261" x1="32.5" y1="13.7772" x2="132" y2="13.7772" gradientUnits="userSpaceOnUse"><stop stop-color="#0070FF"></stop><stop offset="1" stop-color="#902EE0"></stop></linearGradient></defs></svg>